# xmcd
#
# Track frame offsets:
# 150
# 11507
# 24798
# 37722
# 51093
# 66392
# 80604
# 93622
# 103717
# 119465
# 131743
# 143982
# 156904
# 173698
# 185621
# 201837
# 214181
# 226753
# 238949
# 253243
# 269533
# 282318
# 299946
#
# Disc length: 4123 seconds
#
#
# Revision: 0
# Processed by: cddbd v1.4PL0 Copyright (c) Steve Scherf et al.
# Submitted via: FreeRIP 2.00 
#
DISCID=5f101917
DTITLE=Merle Haggard - Collector's Eddition
DYEAR=1900
DGENRE=Country
TTITLE0=(My Friends Are Gonna Be) Strangers
TTITLE1=Swinging Doors
TTITLE2=The Bottle Let Me Down
TTITLE3=(I'm A Lonesome) Fugitive
TTITLE4=I Threw Away The Rose
TTITLE5=Branded Man
TTITLE6=Sing Me Back Home
TTITLE7=Mama Tried
TTITLE8=Hungry Eyes
TTITLE9=Workin' Man Blues
TTITLE10=Okie From Muskogee
TTITLE11=The Fightin' Side Of Me
TTITLE12=Daddy Frank (The Guitar Man)
TTITLE13=Carolyn
TTITLE14=It's Not Love (But It's Not Bad)
TTITLE15=Everybody's Had The Blues
TTITLE16=If We Make It Through December
TTITLE17=Things Aren't Funny Anymore
TTITLE18=Always Wanting You
TTITLE19=It's All In The Movies
TTITLE20=I'm Always On A Mountain When I Fall
TTITLE21=I Think I'll Just Stay Here And Drink
TTITLE22=Today I Started Loving You Again
EXTD=
EXTT0=
EXTT1=
EXTT2=
EXTT3=
EXTT4=
EXTT5=
EXTT6=
EXTT7=
EXTT8=
EXTT9=
EXTT10=
EXTT11=
EXTT12=
EXTT13=
EXTT14=
EXTT15=
EXTT16=
EXTT17=
EXTT18=
EXTT19=
EXTT20=
EXTT21=
EXTT22=
PLAYORDER=
